<svg width="268" height="49" viewBox="0 0 268 49" fill="none" xmlns="http://www.w3.org/2000/svg">
<path d="M7.27894 5.00305H0V48.5501H7.27894V5.00305Z" fill="#0088CE"/>
<path d="M16.5869 13.5684H23.3892V17.5867C25.0211 13.7006 28.831 13.5684 34.1371 13.5684H36.2457C43.048 13.5684 47.1955 16.9291 47.1955 23.0557V48.5501H40.327V22.1965C40.327 19.7578 39.6452 18.7697 37.6061 18.6375H26.1796C24.1406 18.7697 23.4587 19.7578 23.4587 22.1965V48.5501H16.5869V13.5684Z" fill="#0088CE"/>
<path d="M58.152 13.5684V9.94331C58.152 4.01499 61.621 0.389923 69.5786 0.389923H72.2995V5.46237H68.0824C65.431 5.46237 65.0205 6.78088 65.0205 9.21632V13.5651H71.6176V18.6375H65.0205V48.5468H58.152V18.6375H52.7102V13.5684H58.152Z" fill="#0088CE"/>
<path d="M108.522 39.0595C108.522 45.1861 104.371 48.5468 97.635 48.5468H87.569C80.8362 48.5468 76.6853 45.1861 76.6853 39.0595V23.0524C76.6853 16.9258 80.8362 13.5651 87.569 13.5651H97.635C104.371 13.5651 108.522 16.9258 108.522 23.0524V39.0595ZM86.619 43.4744H98.5883C100.902 43.4744 101.65 42.4863 101.65 39.9187V22.1965C101.65 19.6256 100.902 18.6375 98.5883 18.6375H86.619C84.3052 18.6375 83.5571 19.6256 83.5571 22.1965V39.9187C83.5604 42.4863 84.3052 43.4744 86.619 43.4744Z" fill="#0088CE"/>
<path d="M142.027 30.9601L121.961 28.3892C116.655 27.7316 114 23.2507 114 18.6375V16.8597C114 9.15024 119.171 4.99976 127.674 4.99976H147.062L141.206 10.5976H125.089C122.236 10.5976 121.279 11.1924 121.279 12.9042V22.1932L141.345 24.893C147.333 25.6828 149.303 29.635 149.303 34.909V36.6869C149.303 44.3963 144.132 48.5468 135.632 48.5468H114.887L120.74 42.949H138.22C141.077 42.949 142.03 42.3541 142.03 40.6391V30.9601H142.027Z" fill="#0088CE"/>
<path d="M154.566 39.0595V13.5684H161.434V39.9187C161.434 42.3574 162.116 43.3422 164.155 43.4744H175.582C177.624 43.3422 178.302 42.3541 178.302 39.9187V13.5684H185.174V48.5501H178.372V44.5318C176.74 48.4179 172.934 48.5501 167.627 48.5501H165.519C158.713 48.5501 154.566 45.1894 154.566 39.0595Z" fill="#0088CE"/>
<path d="M201.132 13.5684H194.264V48.5501H201.132V13.5684Z" fill="#0088CE"/>
<path d="M220.947 18.6375V39.7204C220.947 42.1592 221.354 43.4744 224.009 43.4744H231.625V48.5501H225.502C217.544 48.5501 214.075 44.925 214.075 38.9967V18.6375H208.636V13.5684H214.078L216.117 5.00305H220.947V13.5684H231.625V18.6375H220.947Z" fill="#0088CE"/>
<path d="M243.237 33.5277V40.5763C243.237 42.3541 243.85 43.4744 245.617 43.4744H267.997L262.711 48.5501H248C241.198 48.5501 236.369 45.1894 236.369 39.0628V23.0557C236.369 16.9291 241.198 13.5684 248 13.5684H256.368C263.171 13.5684 268 16.9291 268 23.0557V33.531H243.237V33.5277ZM261.125 21.5389C261.125 20.1543 260.513 18.6375 258.742 18.6375H245.614C243.846 18.6375 243.234 20.1543 243.234 21.5389V28.4553H261.125V21.5389Z" fill="#0088CE"/>
<path d="M201.947 4.11414C201.947 6.38765 200.043 8.23158 197.696 8.23158C195.35 8.23158 193.446 6.38765 193.446 4.11414C193.446 1.84062 195.35 0 197.696 0C200.043 0 201.947 1.84393 201.947 4.11414Z" fill="#0088CE"/>
</svg>
