<svg xmlns="http://www.w3.org/2000/svg" viewBox="0 0 40 40" fill="none"><g clip-path="url(#clip0_10_740)"><path d="M15.6641 14.4141L17.3438 12.0313C17.4219 11.9141 17.5 11.875 17.6562 11.8359C18.2422 11.7969 18.7891 11.8359 19.2969 12.0313C19.8047 12.2266 20.2734 12.5391 20.7031 12.9688C20.7812 13.0469 20.8203 13.1641 20.8203 13.3203L20.5469 16.1719C20.5469 16.4844 20.6641 16.7578 20.8984 16.9531C21.2109 17.1875 21.4453 17.4219 21.7188 17.6563C21.9531 17.8516 22.2656 17.9297 22.5781 17.8516L25.3516 17.1094C25.4688 17.0703 25.5859 17.1094 25.7031 17.1875C26.2109 17.5 26.6016 17.8906 26.875 18.3594C27.1484 18.8281 27.3047 19.375 27.3438 19.9609C27.3438 20.1172 27.3047 20.2344 27.1875 20.3125L25.1562 22.3438C24.9219 22.5781 24.8438 22.8906 24.9219 23.2031C25 23.5156 25.0781 23.8672 25.1172 24.2188C25.1562 24.5313 25.3125 24.8047 25.625 24.9219L28.2031 26.1328C28.3594 26.2109 28.4375 26.2891 28.4766 26.4063C28.6328 26.9922 28.6719 27.5391 28.5938 28.0859C28.4766 28.6328 28.2422 29.1406 27.8906 29.6094C27.8125 29.7266 27.6953 29.7656 27.5781 29.8047L24.7266 30.0391C24.4141 30.0781 24.1406 30.2344 23.9844 30.5078C23.8281 30.8203 23.6719 31.1328 23.4766 31.4453C23.2812 31.7188 23.2812 32.0313 23.3984 32.3047L24.6094 34.9219C24.6875 35.0391 24.6875 35.1563 24.6094 35.2734C24.375 35.8203 24.0625 36.2891 23.6328 36.6406C23.2422 36.9922 22.7344 37.2266 22.1484 37.3438C22.0312 37.3828 21.875 37.3828 21.7969 37.3047L19.4141 35.6641C19.1797 35.4688 18.8672 35.4297 18.5547 35.5469C18.2422 35.7031 17.9297 35.8203 17.5781 35.8984C17.2656 36.0156 17.0703 36.25 16.9531 36.5234L16.2109 39.2969C16.2109 39.4531 16.1328 39.5313 15.9766 39.6094C15.4688 39.8828 14.9219 40 14.375 40C13.8281 40 13.2812 39.8828 12.7734 39.6094C12.6172 39.5313 12.5391 39.4531 12.5391 39.2969L11.7969 36.5234C11.6797 36.25 11.4844 36.0156 11.1719 35.8984C10.8203 35.8203 10.5078 35.7031 10.1953 35.5469C9.88281 35.4297 9.57031 35.4688 9.33594 35.6641L6.95312 37.3047C6.875 37.3828 6.71875 37.3828 6.60156 37.3438C6.01562 37.2266 5.50781 36.9922 5.11719 36.6406C4.6875 36.2891 4.375 35.8203 4.14062 35.2734C4.0625 35.1563 4.0625 35.0391 4.14062 34.9219L5.35156 32.3047C5.46875 32.0313 5.46875 31.7188 5.27344 31.4453C5.07812 31.1328 4.92188 30.8203 4.76562 30.5078C4.60938 30.2344 4.33594 30.0781 4.02344 30.0391L1.17188 29.8047C1.05469 29.7656 0.9375 29.7266 0.859375 29.6094C0.507812 29.1406 0.273438 28.6328 0.15625 28.0859C0.078125 27.5391 0.117188 26.9922 0.273438 26.4063C0.3125 26.2891 0.390625 26.2109 0.546875 26.1328L3.125 24.9219C3.4375 24.8047 3.59375 24.5313 3.63281 24.2188C3.67188 23.8672 3.75 23.5156 3.82812 23.2031C3.90625 22.8906 3.82812 22.5781 3.59375 22.3438L1.5625 20.3125C1.44531 20.2344 1.40625 20.1172 1.40625 19.9609C1.44531 19.375 1.60156 18.8281 1.875 18.3594C2.14844 17.8906 2.53906 17.5 3.04688 17.1875C3.16406 17.1094 3.28125 17.0703 3.39844 17.1094L6.17188 17.8516C6.48438 17.9297 6.79688 17.8516 7.03125 17.6563C7.30469 17.4219 7.53906 17.1875 7.85156 16.9531C8.08594 16.7578 8.20312 16.4844 8.20312 16.1719L7.92969 13.3203C7.92969 13.1641 7.96875 13.0469 8.04688 12.9688C8.47656 12.5391 8.94531 12.2266 9.45312 12.0313C9.96094 11.8359 10.5078 11.7969 11.0938 11.8359C11.25 11.875 11.3281 11.9141 11.4062 12.0313L13.0859 14.4141C13.2422 14.6484 13.5156 14.8047 13.8672 14.7656C14.2188 14.7656 14.5312 14.7656 14.8828 14.7656C15.2344 14.8047 15.5078 14.6484 15.6641 14.4141ZM14.375 21.25C11.9531 21.25 10 23.2031 10 25.625C10 28.0469 11.9531 30 14.375 30C16.7969 30 18.75 28.0469 18.75 25.625C18.75 23.2031 16.7969 21.25 14.375 21.25Z" fill="#00AEEE"></path><path d="M22.1484 17.8516C22.2656 17.8906 22.4219 17.8906 22.5781 17.8516L25.3516 17.1094C25.4688 17.0703 25.5859 17.1094 25.7031 17.1875C26.2109 17.5 26.6016 17.8906 26.875 18.3594C27.1484 18.8281 27.3047 19.375 27.3438 19.9609C27.3438 20.1172 27.3047 20.2344 27.1875 20.3125L25.1562 22.3438C24.9219 22.5781 24.8438 22.8906 24.9219 23.2031C25 23.5156 25.0781 23.8672 25.1172 24.2188C25.1562 24.5313 25.3125 24.8047 25.625 24.9219L28.2031 26.1328C28.3594 26.2109 28.4375 26.2891 28.4766 26.4063C28.6328 26.9922 28.6719 27.5391 28.5938 28.0859C28.4766 28.6328 28.2422 29.1406 27.8906 29.6094C27.8125 29.7266 27.6953 29.7656 27.5781 29.8047L24.7266 30.0391C24.4141 30.0781 24.1406 30.2344 23.9844 30.5078C23.8281 30.8203 23.6719 31.1328 23.4766 31.4453C23.2812 31.7188 23.2812 32.0313 23.3984 32.3047L24.6094 34.9219C24.6875 35.0391 24.6875 35.1563 24.6094 35.2734C24.375 35.8203 24.0625 36.2891 23.6328 36.6406C23.2422 36.9922 22.7344 37.2266 22.1484 37.3438C22.0312 37.3828 21.875 37.3828 21.7969 37.3047L19.4141 35.6641C19.1797 35.4688 18.8672 35.4297 18.5547 35.5469C18.2422 35.7031 17.9297 35.8203 17.5781 35.8984C17.2656 36.0156 17.0703 36.25 16.9531 36.5234L16.2109 39.2969C16.2109 39.4531 16.1328 39.5313 15.9766 39.6094C15.4688 39.8828 14.9219 40 14.375 40C13.8281 40 13.2812 39.8828 12.7734 39.6094C12.6172 39.5313 12.5391 39.4531 12.5391 39.2969L11.7969 36.5234C11.6797 36.25 11.4844 36.0156 11.1719 35.8984C10.8203 35.8203 10.5078 35.7031 10.1953 35.5469C9.88281 35.4297 9.57031 35.4688 9.33594 35.6641L6.95312 37.3047C6.875 37.3828 6.71875 37.3828 6.60156 37.3438C6.01562 37.2266 5.50781 36.9922 5.11719 36.6406C4.80469 36.3672 4.53125 36.0547 4.33594 35.6641L11.2891 28.7109C12.0703 29.4922 13.1641 30 14.375 30C16.7969 30 18.75 28.0469 18.75 25.625C18.75 24.4141 18.2422 23.3203 17.4609 22.5391L22.1484 17.8516Z" fill="#0094D2"></path><path d="M14.375 16.25C19.5703 16.25 23.75 20.4297 23.75 25.625C23.75 30.8203 19.5703 35 14.375 35C9.17969 35 5 30.8203 5 25.625C5 20.4297 9.17969 16.25 14.375 16.25ZM14.375 20C11.25 20 8.75 22.5 8.75 25.625C8.75 28.75 11.25 31.25 14.375 31.25C17.5 31.25 20 28.75 20 25.625C20 22.5 17.5 20 14.375 20Z" fill="#36CDFF"></path><path d="M7.73438 32.2656L10.3906 29.6094C11.4062 30.625 12.8125 31.25 14.375 31.25C17.5 31.25 20 28.75 20 25.625C20 24.0625 19.375 22.6562 18.3594 21.6406L21.0156 18.9844C22.6953 20.7031 23.75 23.0469 23.75 25.625C23.75 30.8203 19.5703 35 14.375 35C11.7969 35 9.45312 33.9453 7.73438 32.2656Z" fill="#00AEEE"></path><path d="M30.0779 3.125C30.2342 3.08594 30.3123 2.96875 30.4295 2.89063L32.1482 0.742189C32.2263 0.625002 32.3045 0.585939 32.4607 0.585939C33.0076 0.546877 33.5545 0.625002 34.0232 0.859377C34.492 1.05469 34.9217 1.36719 35.2732 1.79688C35.3513 1.91406 35.3904 2.03125 35.3904 2.14844L34.9607 4.88281C34.9607 5 34.9607 5.15625 34.9998 5.27344C35.156 5.42969 35.3123 5.625 35.4295 5.78125C35.5467 5.85938 35.7029 5.89844 35.8201 5.89844H38.5545C38.7107 5.89844 38.8279 5.9375 38.906 6.05469C39.2576 6.44531 39.531 6.91406 39.6482 7.42188C39.8045 7.92969 39.8045 8.47656 39.6873 9.02344C39.6873 9.14063 39.6092 9.25781 39.492 9.33594L37.1092 10.7031C36.992 10.7422 36.8748 10.8594 36.7967 10.9766C36.7576 11.1719 36.7185 11.4062 36.6795 11.6406C36.7185 11.7578 36.7576 11.875 36.8357 11.9922L38.5545 14.1406C38.6326 14.2578 38.6717 14.375 38.6326 14.4922C38.5545 15.0391 38.3592 15.5469 38.0467 15.9766C37.7342 16.3672 37.3045 16.7188 36.7967 16.9922C36.6795 17.0312 36.5623 17.0312 36.4451 16.9922L33.906 15.9766C33.7498 15.9375 33.6326 15.8984 33.4763 15.9375C33.281 16.0547 33.0857 16.1328 32.8904 16.25C32.8123 16.3281 32.7342 16.4453 32.7342 16.6016L32.1092 19.2578C32.0701 19.4141 31.992 19.4922 31.8748 19.5703C31.367 19.8438 30.8592 19.9609 30.3513 20C29.8435 20 29.2967 19.9219 28.7888 19.6875C28.6717 19.6094 28.5935 19.5312 28.5545 19.4141L27.7342 16.7578C27.6951 16.6406 27.656 16.5234 27.5388 16.4062C27.3435 16.3281 27.1482 16.25 26.9138 16.1328C26.7967 16.1328 26.6795 16.1719 26.5232 16.25L24.0623 17.4219C23.9451 17.4609 23.8279 17.5 23.7107 17.4219C23.1638 17.2266 22.7342 16.9141 22.4217 16.5234C22.0701 16.0938 21.8357 15.625 21.6795 15.0781C21.6404 14.9609 21.6795 14.8438 21.7576 14.7266L23.3201 12.4609C23.3982 12.3438 23.4373 12.2266 23.4373 12.1094C23.3982 11.875 23.3201 11.6406 23.281 11.4453C23.2029 11.3281 23.0857 11.25 22.9685 11.1719L20.5076 10C20.3904 9.92188 20.3123 9.84375 20.2732 9.6875C20.117 9.17969 20.0779 8.63281 20.1951 8.125C20.2732 7.61719 20.5076 7.10938 20.8201 6.67969C20.9373 6.5625 21.0154 6.52344 21.1717 6.48438L23.906 6.28906C24.0232 6.28906 24.1795 6.25 24.2967 6.17188C24.4138 5.97656 24.531 5.82031 24.6873 5.625C24.7263 5.50781 24.7263 5.39063 24.6873 5.23438L24.1013 2.53906C24.0623 2.42188 24.0623 2.30469 24.1404 2.1875C24.492 1.75781 24.8826 1.40625 25.3513 1.13281C25.8201 0.898439 26.3279 0.781252 26.8748 0.781252C27.031 0.742189 27.1482 0.820314 27.2263 0.898439L29.1013 2.92969C29.1795 3.00781 29.2967 3.08594 29.4138 3.16406C29.6482 3.125 29.8826 3.125 30.0779 3.125ZM29.9998 7.5C28.6326 7.5 27.4998 8.63281 27.4998 10C27.4998 11.3672 28.6326 12.5 29.9998 12.5C31.367 12.5 32.4998 11.3672 32.4998 10C32.4998 8.63281 31.367 7.5 29.9998 7.5Z" fill="#0080BC"></path><path d="M34.9609 5.03906C34.9609 5.11719 34.9609 5.19531 35 5.27344C35.1562 5.42969 35.3125 5.625 35.4297 5.78125C35.5469 5.85938 35.7031 5.89844 35.8203 5.89844H38.5547C38.7109 5.89844 38.8281 5.9375 38.9062 6.05469C39.2578 6.44531 39.5312 6.91406 39.6484 7.42188C39.8047 7.92969 39.8047 8.47656 39.6875 9.02344C39.6875 9.14062 39.6094 9.25781 39.4922 9.33594L37.1094 10.7031C36.9922 10.7422 36.875 10.8594 36.7969 10.9766C36.7578 11.1719 36.7188 11.4062 36.6797 11.6406C36.7188 11.7578 36.7578 11.875 36.8359 11.9922L38.5547 14.1406C38.6328 14.2578 38.6719 14.375 38.6328 14.4922C38.5547 15.0391 38.3594 15.5469 38.0469 15.9766C37.7344 16.3672 37.3047 16.7188 36.7969 16.9922C36.6797 17.0312 36.5625 17.0312 36.4453 16.9922L33.9062 15.9766C33.75 15.9375 33.6328 15.8984 33.4766 15.9375C33.2812 16.0547 33.0859 16.1328 32.8906 16.25C32.8125 16.3281 32.7344 16.4453 32.7344 16.6016L32.1094 19.2578C32.0703 19.4141 31.9922 19.4922 31.875 19.5703C31.3672 19.8438 30.8594 19.9609 30.3516 20C29.8438 20 29.2969 19.9219 28.7891 19.6875C28.6719 19.6094 28.5938 19.5312 28.5547 19.4141L27.7344 16.7578C27.6953 16.6406 27.6562 16.5234 27.5391 16.4062C27.3438 16.3281 27.1484 16.25 26.9141 16.1328C26.7969 16.1328 26.6797 16.1719 26.5234 16.25L24.0625 17.4219C23.9453 17.4609 23.8281 17.5 23.7109 17.4219C23.4375 17.3047 23.2031 17.1875 22.9688 17.0312L28.2422 11.7578C28.6719 12.2266 29.2969 12.5 30 12.5C31.3672 12.5 32.5 11.3672 32.5 10C32.5 9.29688 32.2266 8.67188 31.7578 8.24219L34.9609 5.03906Z" fill="#0069A6"></path><path d="M30 3.75C33.4375 3.75 36.25 6.5625 36.25 10C36.25 13.4375 33.4375 16.25 30 16.25C26.5625 16.25 23.75 13.4375 23.75 10C23.75 6.5625 26.5625 3.75 30 3.75ZM30 6.25C27.9297 6.25 26.25 7.92969 26.25 10C26.25 12.0703 27.9297 13.75 30 13.75C32.0703 13.75 33.75 12.0703 33.75 10C33.75 7.92969 32.0703 6.25 30 6.25Z" fill="#00AEEE"></path><path d="M34.4141 5.58594C35.5469 6.71875 36.25 8.28125 36.25 10C36.25 13.4375 33.4375 16.25 30 16.25C28.2812 16.25 26.7188 15.5469 25.5859 14.4141L27.3438 12.6562C28.0078 13.3203 28.9453 13.75 30 13.75C32.0703 13.75 33.75 12.0703 33.75 10C33.75 8.94531 33.3203 8.00781 32.6562 7.34375L34.4141 5.58594Z" fill="#0094D2"></path></g><defs><clipPath id="clip0_10_740"><rect width="40" height="40" fill="white"></rect></clipPath></defs></svg>