<svg xmlns="http://www.w3.org/2000/svg" viewBox="0 0 40 40" fill="none"><path fill-rule="evenodd" clip-rule="evenodd" d="M25.625 33.75C25.9766 33.75 26.25 34.0234 26.25 34.375V36.875C26.25 37.2266 25.9766 37.5 25.625 37.5H14.375C14.0234 37.5 13.75 37.2266 13.75 36.875V34.375C13.75 34.0234 14.0234 33.75 14.375 33.75C14.0234 33.75 13.75 33.4766 13.75 33.125V30.625C13.75 30.2734 14.0234 30 14.375 30C14.0234 30 13.75 29.7266 13.75 29.375V26.875C13.75 26.5234 14.0234 26.25 14.375 26.25C14.0234 26.25 13.75 25.9766 13.75 25.625V23.125C13.75 22.7734 14.0234 22.5 14.375 22.5C14.0234 22.5 13.75 22.2266 13.75 21.875V19.375C13.75 19.0234 14.0234 18.75 14.375 18.75C14.0234 18.75 13.75 18.4766 13.75 18.125V15.625C13.75 15.2734 14.0234 15 14.375 15C14.0234 15 13.75 14.7266 13.75 14.375V11.875C13.75 11.5234 14.0234 11.25 14.375 11.25C14.0234 11.25 13.75 10.9766 13.75 10.625V8.125C13.75 7.77344 14.0234 7.5 14.375 7.5C14.0234 7.5 13.75 7.22656 13.75 6.875V4.375C13.75 4.02344 14.0234 3.75 14.375 3.75H17.5H25.625C25.9766 3.75 26.25 4.02344 26.25 4.375V6.875C26.25 7.22656 25.9766 7.5 25.625 7.5C25.9766 7.5 26.25 7.77344 26.25 8.125V10.625C26.25 10.9766 25.9766 11.25 25.625 11.25C25.9766 11.25 26.25 11.5234 26.25 11.875V14.375C26.25 14.7266 25.9766 15 25.625 15C25.9766 15 26.25 15.2734 26.25 15.625V18.125C26.25 18.4766 25.9766 18.75 25.625 18.75C25.9766 18.75 26.25 19.0234 26.25 19.375V21.875C26.25 22.2266 25.9766 22.5 25.625 22.5C25.9766 22.5 26.25 22.7734 26.25 23.125V25.625C26.25 25.9766 25.9766 26.25 25.625 26.25C25.9766 26.25 26.25 26.5234 26.25 26.875V29.375C26.25 29.7266 25.9766 30 25.625 30C25.9766 30 26.25 30.2734 26.25 30.625V33.125C26.25 33.4766 25.9766 33.75 25.625 33.75Z" fill="#36CDFF"></path><path fill-rule="evenodd" clip-rule="evenodd" d="M25.625 33.75C25.9766 33.75 26.25 34.0234 26.25 34.375V36.875C26.25 37.2266 25.9766 37.5 25.625 37.5H21.25H14.375C14.0234 37.5 13.75 37.2266 13.75 36.875H19.375C19.7266 36.875 20 36.6016 20 36.25V33.75H14.375C14.0234 33.75 13.75 33.4766 13.75 33.125H19.375C19.7266 33.125 20 32.8516 20 32.5V30H14.375C14.0234 30 13.75 29.7266 13.75 29.375H19.375C19.7266 29.375 20 29.1016 20 28.75V26.25H14.375C14.0234 26.25 13.75 25.9766 13.75 25.625H19.375C19.7266 25.625 20 25.3516 20 25V22.5H14.375C14.0234 22.5 13.75 22.2266 13.75 21.875H19.375C19.7266 21.875 20 21.6016 20 21.25V18.75H14.375C14.0234 18.75 13.75 18.4766 13.75 18.125H19.375C19.7266 18.125 20 17.8516 20 17.5V15H14.375C14.0234 15 13.75 14.7266 13.75 14.375H19.375C19.7266 14.375 20 14.1016 20 13.75V11.25H14.375C14.0234 11.25 13.75 10.9766 13.75 10.625H19.375C19.7266 10.625 20 10.3516 20 10V7.5H14.375C14.0234 7.5 13.75 7.22656 13.75 6.875H19.375C19.7266 6.875 20 6.60156 20 6.25V3.75H22.5H25.625C25.9766 3.75 26.25 4.02344 26.25 4.375V6.875C26.25 7.22656 25.9766 7.5 25.625 7.5C25.9766 7.5 26.25 7.77344 26.25 8.125V10.625C26.25 10.9766 25.9766 11.25 25.625 11.25C25.9766 11.25 26.25 11.5234 26.25 11.875V14.375C26.25 14.7266 25.9766 15 25.625 15C25.9766 15 26.25 15.2734 26.25 15.625V18.125C26.25 18.4766 25.9766 18.75 25.625 18.75C25.9766 18.75 26.25 19.0234 26.25 19.375V21.875C26.25 22.2266 25.9766 22.5 25.625 22.5C25.9766 22.5 26.25 22.7734 26.25 23.125V25.625C26.25 25.9766 25.9766 26.25 25.625 26.25C25.9766 26.25 26.25 26.5234 26.25 26.875V29.375C26.25 29.7266 25.9766 30 25.625 30C25.9766 30 26.25 30.2734 26.25 30.625V33.125C26.25 33.4766 25.9766 33.75 25.625 33.75Z" fill="#00AEEE"></path><path fill-rule="evenodd" clip-rule="evenodd" d="M21.875 33.75C22.2266 33.75 22.5 34.0234 22.5 34.375V36.875C22.5 37.2266 22.2266 37.5 21.875 37.5H10.625C10.2734 37.5 10 37.2266 10 36.875V35V34.375C10 34.0234 10.2734 33.75 10.625 33.75C10.2734 33.75 10 33.4766 10 33.125V30.625C10 30.2734 10.2734 30 10.625 30C10.2734 30 10 29.7266 10 29.375V26.875C10 26.5234 10.2734 26.25 10.625 26.25C10.2734 26.25 10 25.9766 10 25.625V23.125C10 22.7734 10.2734 22.5 10.625 22.5C10.2734 22.5 10 22.2266 10 21.875V19.375C10 19.0234 10.2734 18.75 10.625 18.75H21.875C22.2266 18.75 22.5 19.0234 22.5 19.375V21.875C22.5 22.2266 22.2266 22.5 21.875 22.5C22.2266 22.5 22.5 22.7734 22.5 23.125V25.625C22.5 25.9766 22.2266 26.25 21.875 26.25C22.2266 26.25 22.5 26.5234 22.5 26.875V29.375C22.5 29.7266 22.2266 30 21.875 30C22.2266 30 22.5 30.2734 22.5 30.625V33.125C22.5 33.4766 22.2266 33.75 21.875 33.75Z" fill="#0094D2"></path><path fill-rule="evenodd" clip-rule="evenodd" d="M21.875 33.75C22.2266 33.75 22.5 34.0234 22.5 34.375V36.875C22.5 37.2266 22.2266 37.5 21.875 37.5H20H17.5H16.25H10.625C10.2734 37.5 10 37.2266 10 36.875H15.625C15.9766 36.875 16.25 36.6016 16.25 36.25V33.75H10.625C10.2734 33.75 10 33.4766 10 33.125H15.625C15.9766 33.125 16.25 32.8516 16.25 32.5V30H10.625C10.2734 30 10 29.7266 10 29.375H15.625C15.9766 29.375 16.25 29.1016 16.25 28.75V26.25H10.625C10.2734 26.25 10 25.9766 10 25.625H15.625C15.9766 25.625 16.25 25.3516 16.25 25V22.5H10.625C10.2734 22.5 10 22.2266 10 21.875H15.625C15.9766 21.875 16.25 21.6016 16.25 21.25V18.75H21.875C22.2266 18.75 22.5 19.0234 22.5 19.375V21.875C22.5 22.2266 22.2266 22.5 21.875 22.5C22.2266 22.5 22.5 22.7734 22.5 23.125V25.625C22.5 25.9766 22.2266 26.25 21.875 26.25C22.2266 26.25 22.5 26.5234 22.5 26.875V29.375C22.5 29.7266 22.2266 30 21.875 30C22.2266 30 22.5 30.2734 22.5 30.625V33.125C22.5 33.4766 22.2266 33.75 21.875 33.75Z" fill="#0080BC"></path><path fill-rule="evenodd" clip-rule="evenodd" d="M36.875 33.75C37.2266 33.75 37.5 34.0234 37.5 34.375V36.875C37.5 37.2266 37.2266 37.5 36.875 37.5H25.625C25.2734 37.5 25 37.2266 25 36.875V34.375C25 34.0234 25.2734 33.75 25.625 33.75C25.2734 33.75 25 33.4766 25 33.125V30.625C25 30.2734 25.2734 30 25.625 30C25.2734 30 25 29.7266 25 29.375V26.875C25 26.5234 25.2734 26.25 25.625 26.25C25.2734 26.25 25 25.9766 25 25.625V23.125C25 22.7734 25.2734 22.5 25.625 22.5C25.2734 22.5 25 22.2266 25 21.875V19.375C25 19.0234 25.2734 18.75 25.625 18.75C25.2734 18.75 25 18.4766 25 18.125V15.625C25 15.2734 25.2734 15 25.625 15C25.2734 15 25 14.7266 25 14.375V11.875C25 11.5234 25.2734 11.25 25.625 11.25H27.5H36.875C37.2266 11.25 37.5 11.5234 37.5 11.875V14.375C37.5 14.7266 37.2266 15 36.875 15C37.2266 15 37.5 15.2734 37.5 15.625V18.125C37.5 18.4766 37.2266 18.75 36.875 18.75C37.2266 18.75 37.5 19.0234 37.5 19.375V21.875C37.5 22.2266 37.2266 22.5 36.875 22.5C37.2266 22.5 37.5 22.7734 37.5 23.125V25.625C37.5 25.9766 37.2266 26.25 36.875 26.25C37.2266 26.25 37.5 26.5234 37.5 26.875V29.375C37.5 29.7266 37.2266 30 36.875 30C37.2266 30 37.5 30.2734 37.5 30.625V33.125C37.5 33.4766 37.2266 33.75 36.875 33.75Z" fill="#0094D2"></path><path fill-rule="evenodd" clip-rule="evenodd" d="M36.875 33.75C37.2266 33.75 37.5 34.0234 37.5 34.375V36.875C37.5 37.2266 37.2266 37.5 36.875 37.5H32.5H31.25H25.625C25.2734 37.5 25 37.2266 25 36.875H30.625C30.9766 36.875 31.25 36.6016 31.25 36.25V33.75H25.625C25.2734 33.75 25 33.4766 25 33.125H30.625C30.9766 33.125 31.25 32.8516 31.25 32.5V30H25.625C25.2734 30 25 29.7266 25 29.375H30.625C30.9766 29.375 31.25 29.1016 31.25 28.75V26.25H25.625C25.2734 26.25 25 25.9766 25 25.625H30.625C30.9766 25.625 31.25 25.3516 31.25 25V22.5H25.625C25.2734 22.5 25 22.2266 25 21.875H30.625C30.9766 21.875 31.25 21.6016 31.25 21.25V18.75H25.625C25.2734 18.75 25 18.4766 25 18.125H30.625C30.9766 18.125 31.25 17.8516 31.25 17.5V15H25.625C25.2734 15 25 14.7266 25 14.375H30.625C30.9766 14.375 31.25 14.1016 31.25 13.75V11.25H33.75H36.875C37.2266 11.25 37.5 11.5234 37.5 11.875V14.375C37.5 14.7266 37.2266 15 36.875 15C37.2266 15 37.5 15.2734 37.5 15.625V18.125C37.5 18.4766 37.2266 18.75 36.875 18.75C37.2266 18.75 37.5 19.0234 37.5 19.375V21.875C37.5 22.2266 37.2266 22.5 36.875 22.5C37.2266 22.5 37.5 22.7734 37.5 23.125V25.625C37.5 25.9766 37.2266 26.25 36.875 26.25C37.2266 26.25 37.5 26.5234 37.5 26.875V29.375C37.5 29.7266 37.2266 30 36.875 30C37.2266 30 37.5 30.2734 37.5 30.625V33.125C37.5 33.4766 37.2266 33.75 36.875 33.75Z" fill="#0080BC"></path><path fill-rule="evenodd" clip-rule="evenodd" d="M14.375 33.75C14.7266 33.75 15 34.0234 15 34.375V36.875C15 37.2266 14.7266 37.5 14.375 37.5H3.125C2.77344 37.5 2.5 37.2266 2.5 36.875V34.375C2.5 34.0234 2.77344 33.75 3.125 33.75C2.77344 33.75 2.5 33.4766 2.5 33.125V30.625C2.5 30.2734 2.77344 30 3.125 30C2.77344 30 2.5 29.7266 2.5 29.375V26.875C2.5 26.5234 2.77344 26.25 3.125 26.25H14.375C14.7266 26.25 15 26.5234 15 26.875V29.375C15 29.7266 14.7266 30 14.375 30C14.7266 30 15 30.2734 15 30.625V33.125C15 33.4766 14.7266 33.75 14.375 33.75Z" fill="#36CDFF"></path><path fill-rule="evenodd" clip-rule="evenodd" d="M14.375 33.75C14.7266 33.75 15 34.0234 15 34.375V36.875C15 37.2266 14.7266 37.5 14.375 37.5H10H3.125C2.77344 37.5 2.5 37.2266 2.5 36.875H8.125C8.47656 36.875 8.75 36.6016 8.75 36.25V33.75H3.125C2.77344 33.75 2.5 33.4766 2.5 33.125H8.125C8.47656 33.125 8.75 32.8516 8.75 32.5V30H3.125C2.77344 30 2.5 29.7266 2.5 29.375H8.125C8.47656 29.375 8.75 29.1016 8.75 28.75V26.25H3.125H14.375C14.7266 26.25 15 26.5234 15 26.875V29.375C15 29.7266 14.7266 30 14.375 30C14.7266 30 15 30.2734 15 30.625V33.125C15 33.4766 14.7266 33.75 14.375 33.75Z" fill="#00AEEE"></path></svg>