<svg xmlns="http://www.w3.org/2000/svg" viewBox="0 0 40 40" fill="none"><path fill-rule="evenodd" clip-rule="evenodd" d="M5 2.5H35C36.3672 2.5 37.5 3.63281 37.5 5V35C37.5 36.3672 36.3672 37.5 35 37.5H5C3.63281 37.5 2.5 36.3672 2.5 35V5C2.5 3.63281 3.63281 2.5 5 2.5Z" fill="white"></path><path fill-rule="evenodd" clip-rule="evenodd" d="M36.7578 3.24219C37.2266 3.67188 37.5 4.29688 37.5 5V35C37.5 36.3672 36.3672 37.5 35 37.5H5C4.29688 37.5 3.67188 37.2266 3.24219 36.7578L36.7578 3.24219Z" fill="#D7D7D7"></path><path fill-rule="evenodd" clip-rule="evenodd" d="M8.75 37.5V31.25H2.5V30H8.75V23.75H2.5V22.5H8.75V16.25H2.5V15H8.75V8.75H2.5V7.5H8.75V2.5H10V7.5H16.25V2.5H17.5V7.5H23.75V2.5H25V7.5H31.25V2.5H32.5V7.5H37.5V8.75H32.5V15H37.5V16.25H32.5V22.5H37.5V23.75H32.5V30H37.5V31.25H32.5V37.5H31.25V31.25H25V37.5H23.75V31.25H17.5V37.5H16.25V31.25H10V37.5H8.75ZM10 8.75V15H16.25V8.75H10ZM10 16.25V22.5H16.25V16.25H10ZM10 23.75V30H16.25V23.75H10ZM31.25 8.75H25V15H31.25V8.75ZM23.75 8.75H17.5V15H23.75V8.75ZM17.5 30H23.75V23.75H17.5V30ZM25 30H31.25V23.75H25V30ZM17.5 22.5H23.75V16.25H17.5V22.5ZM25 22.5H31.25V16.25H25V22.5Z" fill="#D7D7D7"></path><path fill-rule="evenodd" clip-rule="evenodd" d="M8.75 37.5V31.25L10 30H16.25V23.75L17.5 22.5H23.75V16.25L25 15H31.25V8.75L32.5 7.5H37.5V8.75H32.5V15H37.5V16.25H32.5V22.5H37.5V23.75H32.5V30H37.5V31.25H32.5V37.5H31.25V31.25H25V37.5H23.75V31.25H17.5V37.5H16.25V31.25H10V37.5H8.75ZM17.5 30H23.75V23.75H17.5V30ZM25 30H31.25V23.75H25V30ZM25 22.5H31.25V16.25H25V22.5Z" fill="#AFAFAF"></path><path d="M2.5 13.75L5 12.5L7.5 16.25L10 20L12.5 17.5L15 18.75L17.5 15L20 16.25L22.5 20L25 18.75L27.5 20L30 17.5L32.5 13.75L35 15L37.5 12.5V35C37.5 36.3672 36.3672 37.5 35 37.5H5C3.63281 37.5 2.5 36.3672 2.5 35V13.75Z" fill="#FF8B0B"></path><path d="M21.4844 18.5156L22.5 20L25 18.75L27.5 20L30 17.5L32.5 13.75L35 15L37.5 12.5V35C37.5 36.3672 36.3672 37.5 35 37.5H5C4.96094 37.5 4.96094 37.5 4.92188 37.5H4.88281C4.84375 37.5 4.84375 37.5 4.80469 37.5C4.80469 37.5 4.76562 37.5 4.72656 37.5C4.72656 37.5 4.6875 37.5 4.6875 37.4609C4.64844 37.4609 4.64844 37.4609 4.60938 37.4609H4.57031C4.53125 37.4609 4.53125 37.4609 4.49219 37.4609L4.45312 37.4219C4.41406 37.4219 4.41406 37.4219 4.375 37.4219C4.33594 37.4219 4.29688 37.3828 4.25781 37.3828H4.21875C4.17969 37.3438 4.17969 37.3438 4.14062 37.3438H4.10156C4.0625 37.3047 4.02344 37.3047 3.98438 37.2656C3.94531 37.2656 3.94531 37.2656 3.90625 37.2656C3.90625 37.2266 3.86719 37.2266 3.86719 37.2266C3.82812 37.2266 3.82812 37.2266 3.82812 37.1875C3.75 37.1875 3.71094 37.1484 3.67188 37.1094C3.63281 37.1094 3.63281 37.0703 3.59375 37.0703L3.55469 37.0312C3.55469 37.0312 3.51562 37.0312 3.51562 36.9922C3.47656 36.9922 3.47656 36.9922 3.47656 36.9531C3.4375 36.9531 3.4375 36.9531 3.39844 36.9141C3.39844 36.9141 3.39844 36.9141 3.35938 36.875C3.35938 36.875 3.32031 36.875 3.32031 36.8359C3.32031 36.8359 3.28125 36.8359 3.28125 36.7969C3.28125 36.7969 3.24219 36.7969 3.24219 36.7578L21.4844 18.5156Z" fill="#E66700"></path><path fill-rule="evenodd" clip-rule="evenodd" d="M2.5 20L5 21.25L7.5 25L10 23.75L12.5 27.5L15 23.75L17.5 26.25L20 31.25L22.5 32.5L25 28.75L27.5 30L30 26.25L32.5 27.5L35 21.25L37.5 20V35C37.5 36.3672 36.3672 37.5 35 37.5H5C3.63281 37.5 2.5 36.3672 2.5 35V20Z" fill="#00AEEE"></path><path fill-rule="evenodd" clip-rule="evenodd" d="M15.625 24.375L17.5 26.25L20 31.25L22.5 32.5L25 28.75L27.5 30L30 26.25L32.5 27.5L35 21.25L37.5 20V35C37.5 36.3672 36.3672 37.5 35 37.5H5C4.96094 37.5 4.96094 37.5 4.92188 37.5H4.88281C4.84375 37.5 4.84375 37.5 4.80469 37.5C4.80469 37.5 4.76562 37.5 4.72656 37.5C4.72656 37.5 4.6875 37.5 4.6875 37.4609C4.64844 37.4609 4.64844 37.4609 4.60938 37.4609H4.57031C4.53125 37.4609 4.53125 37.4609 4.49219 37.4609L4.45312 37.4219C4.41406 37.4219 4.41406 37.4219 4.375 37.4219C4.33594 37.4219 4.29688 37.3828 4.25781 37.3828H4.21875C4.17969 37.3438 4.17969 37.3438 4.14062 37.3438H4.10156C4.0625 37.3047 4.02344 37.3047 3.98438 37.2656C3.94531 37.2656 3.94531 37.2656 3.90625 37.2656C3.90625 37.2266 3.86719 37.2266 3.86719 37.2266C3.82812 37.2266 3.82812 37.2266 3.82812 37.1875C3.75 37.1875 3.71094 37.1484 3.67188 37.1094C3.63281 37.1094 3.63281 37.0703 3.59375 37.0703L3.55469 37.0312C3.55469 37.0312 3.51562 37.0312 3.51562 36.9922C3.47656 36.9922 3.47656 36.9922 3.47656 36.9531C3.4375 36.9531 3.4375 36.9531 3.39844 36.9141C3.39844 36.9141 3.39844 36.9141 3.35938 36.875C3.35938 36.875 3.32031 36.875 3.32031 36.8359C3.32031 36.8359 3.28125 36.8359 3.28125 36.7969C3.28125 36.7969 3.24219 36.7969 3.24219 36.7578L12.5 27.5L15.625 24.375Z" fill="#0094D2"></path></svg>