<svg xmlns="http://www.w3.org/2000/svg" viewBox="0 0 40 40" fill="none"><path fill-rule="evenodd" clip-rule="evenodd" d="M40 2.5V31.25H13.75V2.5H40Z" fill="#00AEEE"></path><path fill-rule="evenodd" clip-rule="evenodd" d="M40 2.5V31.25H13.75L40 2.5Z" fill="#0094D2"></path><path fill-rule="evenodd" clip-rule="evenodd" d="M15 6.25H20V11.25H15V6.25ZM15 25H20V30H15V25ZM21.25 25H26.25V30H21.25V25ZM27.5 25H32.5V30H27.5V25ZM33.75 25H38.75V30H33.75V25ZM15 18.75H20V23.75H15V18.75ZM21.25 18.75H26.25V23.75H21.25V18.75ZM27.5 18.75H32.5V23.75H27.5V18.75ZM33.75 18.75H38.75V23.75H33.75V18.75ZM15 12.5H20V17.5H15V12.5ZM21.25 12.5H26.25V17.5H21.25V12.5ZM27.5 12.5H32.5V17.5H27.5V12.5ZM33.75 12.5H38.75V17.5H33.75V12.5ZM21.25 6.25H26.25V11.25H21.25V6.25ZM27.5 6.25H32.5V11.25H27.5V6.25ZM33.75 6.25H38.75V11.25H33.75V6.25Z" fill="white"></path><path fill-rule="evenodd" clip-rule="evenodd" d="M15 29.8828L19.4531 25H20V30H15V29.8828ZM21.25 23.0469L25.1562 18.75H26.25V23.75H21.25V23.0469ZM27.5 16.1719L30.8594 12.5H32.5V17.5H27.5V16.1719ZM31.9922 11.25L32.5 10.7031V11.25H31.9922ZM33.75 9.33594L36.5625 6.25H38.75V11.25H33.75V9.33594ZM21.25 25H26.25V30H21.25V25ZM27.5 25H32.5V30H27.5V25ZM33.75 25H38.75V30H33.75V25ZM27.5 18.75H32.5V23.75H27.5V18.75ZM33.75 18.75H38.75V23.75H33.75V18.75ZM33.75 12.5H38.75V17.5H33.75V12.5Z" fill="#D7D7D7"></path><path fill-rule="evenodd" clip-rule="evenodd" d="M0 31.25L1.25 30L0 28.75V23.75L1.25 22.5L0 21.25V16.25L1.25 15L0 13.75V8.75L1.25 7.5H21.25L22.5 8.75V13.75L21.25 15L22.5 16.25V21.25L21.25 22.5L22.5 23.75V28.75L21.25 30L22.5 31.25V36.25L21.25 37.5H1.25L0 36.25V31.25Z" fill="#00AEEE"></path><path fill-rule="evenodd" clip-rule="evenodd" d="M1.25 37.5L0 36.25H11.25V30H1.25L0 28.75H11.25V22.5H1.25L0 21.25H11.25V15H1.25L0 13.75H11.25V7.5H21.25L22.5 8.75V13.75L21.25 15L22.5 16.25V21.25L21.25 22.5L22.5 23.75V28.75L21.25 30L22.5 31.25V36.25L21.25 37.5H1.25Z" fill="#0094D2"></path></svg>