<svg xmlns="http://www.w3.org/2000/svg" xmlns:xlink="http://www.w3.org/1999/xlink" version="1.1" id="Lag_1" x="0px" y="0px" viewBox="0 0 512 512" enable-background="new 0 0 512 512" xml:space="preserve"><g><path id="curve5" fill-rule="evenodd" clip-rule="evenodd" fill="#0080BC" d="M512,80v384H0V80c0-9,7-16,16-16h480   C505,64,512,71,512,80z"></path><path id="curve4" fill-rule="evenodd" clip-rule="evenodd" fill="#0069A6" d="M512,80v384H0L506.5,68C510,71,512,75.5,512,80z"></path><path id="curve3" fill-rule="evenodd" clip-rule="evenodd" fill="#00AEEE" d="M0,128h512v336H0V128z"></path><path id="curve2" fill-rule="evenodd" clip-rule="evenodd" fill="#0094D2" d="M430,128h82v336H0L430,128z"></path><path id="curve1" fill-rule="evenodd" clip-rule="evenodd" fill="#FFFFFF" d="M464,80c9,0,16,7,16,16s-7,16-16,16s-16-7-16-16   S455,80,464,80z M416,80c9,0,16,7,16,16s-7,16-16,16s-16-7-16-16S407,80,416,80z"></path><path id="curve0" fill-rule="evenodd" clip-rule="evenodd" fill="#D7D7D7" d="M479,90c0.5,2,1,4,1,6c0,9-7,16-16,16   c-3.5,0-7-1-9.5-3L479,90z"></path></g><rect x="12.5" y="140" fill-rule="evenodd" clip-rule="evenodd" fill="#FFFFFF" width="487" height="312"></rect><rect x="65" y="190" fill="#00AEEE" width="87" height="43.8"></rect><rect x="65" y="275.8" fill="#00AEEE" width="69" height="43.8"></rect><rect x="65" y="358.3" fill="#00AEEE" width="95.9" height="43.8"></rect><path id="curve1_00000010992283335658390370000009819814138120321975_" fill-rule="evenodd" clip-rule="evenodd" fill="#B8D426" d="  M328.1,357.2h22.4c6.3,0,11.2,4,11.2,9.2v27.5c0,5.2-4.9,9.2-11.2,9.2h-22.4c-6.3,0-11.2-4-11.2-9.2v-27.5  C316.9,361.3,321.8,357.2,328.1,357.2z M272.2,357.2h22.4c6.3,0,11.2,4,11.2,9.2v27.5c0,5.2-4.9,9.2-11.2,9.2h-22.4  c-6.3,0-11.2-4-11.2-9.2v-27.5C261,361.3,265.9,357.2,272.2,357.2z"></path><path id="curve0_00000005266542800929073650000006520036822708885423_" fill-rule="evenodd" clip-rule="evenodd" fill="#A5C020" d="  M358.8,360.1c1.7,1.7,2.8,4,2.8,6.3V394c0,5.2-4.9,9.2-11.2,9.2H328c-3.2,0-6.3-1.1-8.4-2.9L358.8,360.1z M302.9,360.1  c1.7,1.7,2.8,4,2.8,6.3V394c0,5.2-4.9,9.2-11.2,9.2h-22.4c-3.2,0-6.3-1.1-8.4-2.9L302.9,360.1z"></path><g id="XMLID_00000021803525287723207260000016372149597209756552_"><path fill="#FF8B0B" d="M415.8,366.4V394c0,5.2-4.9,9.2-11.2,9.2h-22.4c-6.3,0-11.2-4-11.2-9.2v-27.5c0-5.2,4.9-9.2,11.2-9.2h22.4   C410.9,357.2,415.8,361.3,415.8,366.4z"></path></g><g id="XMLID_00000023268652769448612340000010474943152007062175_"><path fill="#E66700" d="M415.8,366.4V394c0,5.2-4.9,9.2-11.2,9.2h-22.4c-3.2,0-6.3-1.1-8.4-2.9l39.2-40.2   C414.7,361.8,415.8,364.1,415.8,366.4z"></path></g><path id="curve5_00000175312233745713681950000012879888845071646870_" fill-rule="evenodd" clip-rule="evenodd" fill="#00AEEE" d="  M374.3,227.9h20v85.2h-20V227.9z M284.2,192.8h20v120.3h-20V192.8z M314.2,187.8h20v125.3h-20V187.8z M344.3,207.8h20v105.3h-20  V207.8z"></path><path id="curve4_00000067952459395989095290000002376738612063585932_" fill-rule="evenodd" clip-rule="evenodd" fill="#0094D2" d="  M374.3,227.9h20v85.2h-20V227.9z M284.2,298.1l20-20v35.1h-20C284.2,313.1,284.2,298.1,284.2,298.1z M314.2,268l20-20v65.2h-20V268z   M344.3,237.9l20-20v95.2h-20V237.9z"></path><path id="curve3_00000031907591639465640300000016368272678351126199_" fill-rule="evenodd" clip-rule="evenodd" fill="#FF8B0B" d="  M374.3,288.1h20V172.7h-20V288.1z M284.2,263h20v-90.2h-20C284.2,172.7,284.2,263,284.2,263z M314.2,247.9h20v-75.2h-20V247.9z   M344.3,232.9h20v-60.2h-20V232.9z"></path><path id="curve2_00000183947652617805004660000002211665543817962917_" fill-rule="evenodd" clip-rule="evenodd" fill="#E66700" d="  M374.3,288.1h20V187.8l-20,20.1V288.1z M349.3,232.9l15-15v15H349.3L349.3,232.9z"></path><path id="curve1_00000081630613723994282050000015655854226456547458_" fill-rule="evenodd" clip-rule="evenodd" fill="#B8D426" d="  M374.3,207.8h20v-35.1h-20V207.8z M284.2,222.9h20v-50.1h-20C284.2,172.7,284.2,222.9,284.2,222.9z M314.2,187.8h20v-15h-20V187.8z   M344.3,197.8h20v-25.1h-20V197.8z"></path><path id="curve0_00000057861407588664069630000000300736814656315583_" fill-rule="evenodd" clip-rule="evenodd" fill="#A5C020" d="  M374.3,207.8h20v-20L374.3,207.8z"></path></svg>