<svg xmlns="http://www.w3.org/2000/svg" viewBox="0 0 40 40" fill="none"><path fill-rule="evenodd" clip-rule="evenodd" d="M9.375 2.5H18.75H21.25H30.625C30.9766 2.5 31.25 2.77344 31.25 3.125V5.625C31.25 5.97656 30.9766 6.25 30.625 6.25H30L22.7734 15.4688C22.5781 15.7031 22.5 15.9766 22.5 16.25V20.7422C22.5 21.0938 22.3828 21.3672 22.1484 21.6016L18.5547 25.1953C18.3984 25.3516 18.125 25.4297 17.8906 25.3125C17.6562 25.2344 17.5 25 17.5 24.7266V16.25C17.5 15.9766 17.4219 15.7031 17.2266 15.4688L10 6.25H9.375C9.02344 6.25 8.75 5.97656 8.75 5.625V3.125C8.75 2.77344 9.02344 2.5 9.375 2.5Z" fill="#00AEEE"></path><path fill-rule="evenodd" clip-rule="evenodd" d="M35 8.75C35 11.4844 32.7344 13.75 30 13.75H24.1406L22.7734 15.4688C22.5781 15.7031 22.5 15.9766 22.5 16.25V20.7422C22.5 21.0938 22.3828 21.3672 22.1484 21.6016L20 23.75V7.5H10.9766L10 6.25H20V2.5H21.25H30.625C30.9766 2.5 31.25 2.77344 31.25 3.125V3.90625C33.3984 4.45312 35 6.44531 35 8.75ZM30 6.25L26.0938 11.25H30C31.3672 11.25 32.5 10.1172 32.5 8.75C32.5 7.38281 31.3672 6.25 30 6.25Z" fill="#0094D2"></path><path fill-rule="evenodd" clip-rule="evenodd" d="M6.25 18.75H13.75V28.75H18.75L10 37.5L1.25 28.75H6.25V18.75Z" fill="#FF8B0B"></path><path fill-rule="evenodd" clip-rule="evenodd" d="M10 18.75H13.75V28.75H18.75L10 37.5V18.75Z" fill="#E66700"></path><path fill-rule="evenodd" clip-rule="evenodd" d="M26.25 37.5H33.75V27.5H38.75L30 18.75L21.25 27.5H26.25V37.5Z" fill="#B8D426"></path><path fill-rule="evenodd" clip-rule="evenodd" d="M30 37.5H33.75V27.5H38.75L30 18.75V37.5Z" fill="#A5C020"></path></svg>