<svg xmlns="http://www.w3.org/2000/svg" viewBox="0 0 40 40" fill="none"><path fill-rule="evenodd" clip-rule="evenodd" d="M40 6.25V36.25H0V6.25C0 5.54688 0.546875 5 1.25 5H38.75C39.4531 5 40 5.54688 40 6.25Z" fill="#0080BC"></path><path fill-rule="evenodd" clip-rule="evenodd" d="M40 6.25V36.25H0L39.5703 5.3125C39.8438 5.54688 40 5.89844 40 6.25Z" fill="#0069A6"></path><path fill-rule="evenodd" clip-rule="evenodd" d="M0 10H40V36.25H0V10Z" fill="#00AEEE"></path><path fill-rule="evenodd" clip-rule="evenodd" d="M33.5938 10H40V36.25H0L33.5938 10Z" fill="#0094D2"></path><path fill-rule="evenodd" clip-rule="evenodd" d="M36.25 6.25C36.9531 6.25 37.5 6.79688 37.5 7.5C37.5 8.20312 36.9531 8.75 36.25 8.75C35.5469 8.75 35 8.20312 35 7.5C35 6.79688 35.5469 6.25 36.25 6.25ZM32.5 6.25C33.2031 6.25 33.75 6.79688 33.75 7.5C33.75 8.20312 33.2031 8.75 32.5 8.75C31.7969 8.75 31.25 8.20312 31.25 7.5C31.25 6.79688 31.7969 6.25 32.5 6.25Z" fill="white"></path><path fill-rule="evenodd" clip-rule="evenodd" d="M37.4219 7.03125C37.4609 7.1875 37.5 7.34375 37.5 7.5C37.5 8.20312 36.9531 8.75 36.25 8.75C35.9766 8.75 35.7031 8.67188 35.5078 8.51562L37.4219 7.03125Z" fill="#D7D7D7"></path><path fill-rule="evenodd" clip-rule="evenodd" d="M5 12.5H35V25H5V12.5Z" fill="white"></path><path fill-rule="evenodd" clip-rule="evenodd" d="M30.3906 12.5H35V25H14.4141L30.3906 12.5Z" fill="#D7D7D7"></path><path fill-rule="evenodd" clip-rule="evenodd" d="M15.625 28.75H23.125C23.4766 28.75 23.75 29.0234 23.75 29.375V31.875C23.75 32.2266 23.4766 32.5 23.125 32.5H15.625C15.2734 32.5 15 32.2266 15 31.875V29.375C15 29.0234 15.2734 28.75 15.625 28.75Z" fill="#A5C020"></path><path fill-rule="evenodd" clip-rule="evenodd" d="M26.875 28.75H34.375C34.7266 28.75 35 29.0234 35 29.375V31.875C35 32.2266 34.7266 32.5 34.375 32.5H26.875C26.5234 32.5 26.25 32.2266 26.25 31.875V29.375C26.25 29.0234 26.5234 28.75 26.875 28.75Z" fill="#E66700"></path></svg>