<svg xmlns="http://www.w3.org/2000/svg" viewBox="0 0 40 40" fill="none"><path fill-rule="evenodd" clip-rule="evenodd" d="M5 20.7031L20 6.25L35 20.7031V38.75H5V20.7031Z" fill="#00AEEE"></path><path fill-rule="evenodd" clip-rule="evenodd" d="M35 22.5V38.75H20V10L5 25V21.4453L20.1172 6.36719L35 22.5Z" fill="#0094D2"></path><path d="M0.742188 23.2422L19.5703 4.41406C19.8047 4.17969 20.1953 4.17969 20.4297 4.41406L39.2578 23.2422L37.5 25L20 7.5L2.5 25L0.742188 23.2422Z" fill="#0069A6"></path><path d="M20 4.21875C20.1562 4.21875 20.3125 4.29688 20.4297 4.41406L39.2578 23.2422L37.5 25L20 7.5V4.21875Z" fill="#005890"></path><path fill-rule="evenodd" clip-rule="evenodd" d="M2.5 37.5H37.5V40H2.5V37.5Z" fill="#B8D426"></path><path fill-rule="evenodd" clip-rule="evenodd" d="M20 37.5H37.5V40H20V37.5Z" fill="#A5C020"></path><path fill-rule="evenodd" clip-rule="evenodd" d="M22.5 22.5H31.25V37.5H22.5V22.5Z" fill="#D7D7D7"></path><path fill-rule="evenodd" clip-rule="evenodd" d="M23.75 23.75H30V37.5H23.75V23.75Z" fill="white"></path><path fill-rule="evenodd" clip-rule="evenodd" d="M8.75 23.75H12.5V27.5H8.75V23.75ZM12.5 28.75V32.5H8.75V28.75H12.5ZM13.75 23.75H17.5V27.5H13.75V23.75ZM17.5 28.75V32.5H13.75V28.75H17.5Z" fill="white"></path><path fill-rule="evenodd" clip-rule="evenodd" d="M21.25 36.25H32.5V37.5H21.25V36.25Z" fill="#00AEEE"></path></svg>