<svg xmlns="http://www.w3.org/2000/svg" viewBox="0 0 40 40" fill="none"><path fill-rule="evenodd" clip-rule="evenodd" d="M35 3.75C35 14.5703 35 25.4297 35 36.25C35 37.6172 33.8672 38.75 32.5 38.75H11.25C8.51562 38.75 6.25 36.5234 6.25 33.75V6.25C6.25 3.47656 8.51562 1.25 11.25 1.25H32.5C33.8672 1.25 35 2.38281 35 3.75Z" fill="#0080BC"></path><path fill-rule="evenodd" clip-rule="evenodd" d="M33.75 3.75C33.75 14.5703 33.75 25.4297 33.75 36.25C33.75 37.6172 32.6172 38.75 31.25 38.75H30C31.3672 38.75 32.5 37.6172 32.5 36.25C32.5 25.4297 32.5 14.5703 32.5 3.75C32.5 2.38281 31.3672 1.25 30 1.25H31.25C32.6172 1.25 33.75 2.38281 33.75 3.75Z" fill="#0069A6"></path><path fill-rule="evenodd" clip-rule="evenodd" d="M32.5 2.5C33.2031 2.5 33.75 3.04688 33.75 3.75V36.25C33.75 36.9531 33.2031 37.5 32.5 37.5H8.75C6.01562 37.5 3.75 35.2344 3.75 32.5V7.5C3.75 4.72656 5.97656 2.5 8.75 2.5H32.5Z" fill="#D7D7D7"></path><path fill-rule="evenodd" clip-rule="evenodd" d="M32.5 3.75C32.5 14.5703 32.5 25.4297 32.5 36.25C32.5 37.6172 31.3672 38.75 30 38.75H8.75C6.01562 38.75 3.75 36.5234 3.75 33.75V6.25C3.75 3.47656 5.97656 1.25 8.75 1.25H30C31.3672 1.25 32.5 2.38281 32.5 3.75Z" fill="#00AEEE"></path><path fill-rule="evenodd" clip-rule="evenodd" d="M32.5 3.75C32.5 14.5703 32.5 25.4297 32.5 36.25C32.5 37.6172 31.3672 38.75 30 38.75H8.75C7.26562 38.75 5.9375 38.0859 5.03906 37.0703L31.875 2.07031C32.2656 2.53906 32.5 3.125 32.5 3.75Z" fill="#0094D2"></path><path fill-rule="evenodd" clip-rule="evenodd" d="M7.5 1.25H10V38.75H7.5C5.42969 38.75 3.75 37.0703 3.75 35V5C3.75 2.92969 5.42969 1.25 7.5 1.25Z" fill="#0094D2"></path><path fill-rule="evenodd" clip-rule="evenodd" d="M10 30.5859V38.75H7.5C6.40625 38.75 5.39062 38.2812 4.72656 37.5L10 30.5859Z" fill="#0080BC"></path><path fill-rule="evenodd" clip-rule="evenodd" d="M8.75 1.25H10V38.75H8.75V1.25Z" fill="#0080BC"></path><path fill-rule="evenodd" clip-rule="evenodd" d="M10 30.5859V38.75H8.75V32.2266L10 30.5859Z" fill="#0069A6"></path><path fill-rule="evenodd" clip-rule="evenodd" d="M21.25 1.25C20.5469 1.25 20 1.79688 20 2.5V16.25L16.25 12.5L12.5 16.25V2.5C12.5 1.79688 13.0469 1.25 13.75 1.25H21.25Z" fill="#E66700"></path><path fill-rule="evenodd" clip-rule="evenodd" d="M16.25 12.5L12.5 16.25V2.5C12.5 1.79688 13.0469 1.25 13.75 1.25H16.25V12.5Z" fill="#FF8B0B"></path></svg>