<svg xmlns="http://www.w3.org/2000/svg" xmlns:xlink="http://www.w3.org/1999/xlink" version="1.1" id="Lag_1" x="0px" y="0px" viewBox="0 0 512 512" enable-background="new 0 0 512 512" xml:space="preserve"><g><path id="curve5" fill-rule="evenodd" clip-rule="evenodd" fill="#0080BC" d="M512,80v384H0V80c0-9,7-16,16-16h480   C505,64,512,71,512,80z"></path><path id="curve4" fill-rule="evenodd" clip-rule="evenodd" fill="#0069A6" d="M512,80v384H0L506.5,68C510,71,512,75.5,512,80z"></path><path id="curve3" fill-rule="evenodd" clip-rule="evenodd" fill="#00AEEE" d="M0,128h512v336H0V128z"></path><path id="curve2" fill-rule="evenodd" clip-rule="evenodd" fill="#0094D2" d="M430,128h82v336H0L430,128z"></path><path id="curve1" fill-rule="evenodd" clip-rule="evenodd" fill="#FFFFFF" d="M464,80c9,0,16,7,16,16s-7,16-16,16s-16-7-16-16   S455,80,464,80z M416,80c9,0,16,7,16,16s-7,16-16,16s-16-7-16-16S407,80,416,80z"></path><path id="curve0" fill-rule="evenodd" clip-rule="evenodd" fill="#D7D7D7" d="M479,90c0.5,2,1,4,1,6c0,9-7,16-16,16   c-3.5,0-7-1-9.5-3L479,90z"></path></g><rect x="12.5" y="140" fill-rule="evenodd" clip-rule="evenodd" fill="#FFFFFF" width="487" height="312"></rect><g><path fill-rule="evenodd" clip-rule="evenodd" fill="#00AEEE" d="M353.2,408.1"></path></g><g id="XMLID_00000141439280220780722360000004304585551378778795_"><polygon fill="#00AEEE" points="370.5,356.1 228.5,414.4 228.5,356.1  "></polygon><polygon fill="#00AEEE" points="368,177.6 368,177.9 269.1,235.9 268.6,235.9 268.6,177.6  "></polygon><polygon fill="#00AEEE" points="198.3,355.4 142.2,413.7 141.5,413.7 141.5,356  "></polygon><polygon fill="#0094D2" points="370.5,356.1 370.5,414.4 228.5,414.4  "></polygon><polygon fill="#0094D2" points="269.1,235.9 368,235.9 368.5,235.9 368.5,177.6 368,177.9  "></polygon><polygon fill="#0094D2" points="142.2,413.7 198.3,355.4 198.4,414.4 141.5,414.4  "></polygon></g><path id="curve1_00000173850065977778119240000003979086584077845943_" fill-rule="evenodd" clip-rule="evenodd" fill="#B8D426" d="  M241.4,266.5h28.4c8,0,14.2,5.1,14.2,11.6V313c0,6.6-6.2,11.6-14.2,11.6h-28.4c-8,0-14.2-5.1-14.2-11.6v-34.9  C227.1,271.6,233.4,266.5,241.4,266.5z M170.4,266.5h28.4c8,0,14.2,5.1,14.2,11.6V313c0,6.6-6.2,11.6-14.2,11.6h-28.4  c-8,0-14.2-5.1-14.2-11.6v-34.9C156.2,271.6,162.4,266.5,170.4,266.5z"></path><path id="curve0_00000035514175344602836430000005492793792432050837_" fill-rule="evenodd" clip-rule="evenodd" fill="#A5C020" d="  M280.4,270.2c2.2,2.2,3.6,5.1,3.6,8v34.9c0,6.6-6.2,11.6-14.2,11.6h-28.4c-4,0-8-1.4-10.7-3.6L280.4,270.2z M209.4,270.2  c2.2,2.2,3.6,5.1,3.6,8v34.9c0,6.6-6.2,11.6-14.2,11.6h-28.4c-4,0-8-1.4-10.7-3.6L209.4,270.2z"></path><g id="XMLID_00000021803525287723207260000016372149597209756552_"><path fill="#FF8B0B" d="M352.8,278.2v34.9c0,6.6-6.2,11.6-14.2,11.6h-28.4c-8,0-14.2-5.1-14.2-11.6v-34.9c0-6.6,6.2-11.6,14.2-11.6   h28.4C346.5,266.5,352.8,271.6,352.8,278.2z"></path></g><g id="XMLID_00000023268652769448612340000010474943152007062175_"><path fill="#E66700" d="M352.8,278.2v34.9c0,6.6-6.2,11.6-14.2,11.6h-28.4c-4,0-8-1.4-10.7-3.6l49.7-51   C351.4,272.3,352.8,275.2,352.8,278.2z"></path></g><g id="XMLID_00000021087829072578148760000010824999449706504326_"><polygon fill="#0094D2" points="244.4,177.6 244.4,235.9 145,235.9  "></polygon><polygon fill="#00AEEE" points="244.4,177.6 145,235.9 145,177.6  "></polygon></g></svg>