<svg xmlns="http://www.w3.org/2000/svg" viewBox="0 0 40 40" fill="none"><path fill-rule="evenodd" clip-rule="evenodd" d="M3.75 0H21.25C21.9531 0 22.5 0.546875 22.5 1.25V30H2.5V1.25C2.5 0.546875 3.04688 0 3.75 0Z" fill="#0080BC"></path><path fill-rule="evenodd" clip-rule="evenodd" d="M12.5 0H21.25C21.9531 0 22.5 0.546875 22.5 1.25V30H12.5V0Z" fill="#0069A6"></path><path fill-rule="evenodd" clip-rule="evenodd" d="M3.75 5H21.25V10H3.75V5ZM3.75 11.25H21.25V16.25H3.75V11.25ZM3.75 17.5H21.25V22.5H3.75V17.5ZM3.75 23.75H21.25V28.75H3.75V23.75Z" fill="#00AEEE"></path><path fill-rule="evenodd" clip-rule="evenodd" d="M12.5 5H21.25V10H12.5V5ZM12.5 11.25H21.25V16.25H12.5V11.25ZM12.5 17.5H21.25V22.5H12.5V17.5ZM12.5 23.75H21.25V28.75H12.5V23.75Z" fill="#0094D2"></path><path fill-rule="evenodd" clip-rule="evenodd" d="M7.5 5H17.5V6.25H7.5V5ZM7.5 11.25H17.5V12.5H7.5V11.25ZM7.5 17.5H17.5V18.75H7.5V17.5ZM7.5 23.75H17.5V25H7.5V23.75Z" fill="white"></path><path fill-rule="evenodd" clip-rule="evenodd" d="M12.5 5H17.5V6.25H12.5V5ZM12.5 11.25H17.5V12.5H12.5V11.25ZM12.5 17.5H17.5V18.75H12.5V17.5ZM12.5 23.75H17.5V25H12.5V23.75Z" fill="#D7D7D7"></path><path fill-rule="evenodd" clip-rule="evenodd" d="M20 1.25C20.7031 1.25 21.25 1.79688 21.25 2.5C21.25 3.20312 20.7031 3.75 20 3.75C19.2969 3.75 18.75 3.20312 18.75 2.5C18.75 1.79688 19.2969 1.25 20 1.25Z" fill="#B8D426"></path><path fill-rule="evenodd" clip-rule="evenodd" d="M20.8984 1.60156C21.0938 1.83594 21.25 2.14844 21.25 2.5C21.25 3.20312 20.7031 3.75 20 3.75C19.6484 3.75 19.3359 3.59375 19.1016 3.39844L20.8984 1.60156Z" fill="#A5C020"></path><path fill-rule="evenodd" clip-rule="evenodd" d="M9.64844 18.75H36.6016C37.1094 18.75 37.5 19.1406 37.5 19.6484V39.1016C37.5 39.6094 37.1094 40 36.6016 40H9.64844C9.14062 40 8.75 39.6094 8.75 39.1016V19.6484C8.75 19.1406 9.14062 18.75 9.64844 18.75Z" fill="#00AEEE"></path><path fill-rule="evenodd" clip-rule="evenodd" d="M9.64844 40H36.6016C37.1094 40 37.5 39.6094 37.5 39.1016L24.8828 28.2422C23.8672 27.3828 22.3828 27.3828 21.3672 28.2422L8.75 39.1016C8.75 39.6094 9.14062 40 9.64844 40Z" fill="#0094D2"></path><path fill-rule="evenodd" clip-rule="evenodd" d="M9.64844 18.75H36.6016C37.1094 18.75 37.5 19.1406 37.5 19.6484L24.8828 30.5078C23.8672 31.3672 22.3828 31.3672 21.3672 30.5078L8.75 19.6484C8.75 19.1406 9.14062 18.75 9.64844 18.75Z" fill="#36CDFF"></path><path fill-rule="evenodd" clip-rule="evenodd" d="M8.75 19.6484L21.3672 30.5078C22.3828 31.3672 23.8672 31.3672 24.8828 30.5078L37.5 19.6484V20.3906L26.1719 31.7578C24.5312 33.3984 21.7188 33.3984 20.0781 31.7578L8.75 20.3906V19.6484Z" fill="#0080BC"></path></svg>