<svg xmlns="http://www.w3.org/2000/svg" xmlns:xlink="http://www.w3.org/1999/xlink" version="1.1" id="Lag_1" x="0px" y="0px" viewBox="0 0 512 512" enable-background="new 0 0 512 512" xml:space="preserve"><g><path id="curve3" fill-rule="evenodd" clip-rule="evenodd" fill="#E0A500" d="M256,384c35.5,0,64,28.5,64,64s-28.5,64-64,64   s-64-28.5-64-64S220.5,384,256,384z"></path><path id="curve2" fill-rule="evenodd" clip-rule="evenodd" fill="#C68D00" d="M256,384c35.5,0,64,28.5,64,64s-28.5,64-64,64v-32   h-55.5c-5.5-9.5-8.5-20.5-8.5-32C192,412.5,220.5,384,256,384z"></path><path id="curve1" fill-rule="evenodd" clip-rule="evenodd" fill="#FBD022" d="M48,464v-32c0-33.5,41-57,48-112   c16-128,16-192,107.5-230c9-4,13-13.5,9-22c-3-6-4.5-13-4.5-20c0-26.5,21.5-48,48-48s48,21.5,48,48c0,7-1.5,14-4.5,20   c-4,8.5,0,18,9,22C400,128,400,192,416,320c7,55,48,78.5,48,112v32H48z M256,32c-9,0-16,7-16,16s7,16,16,16s16-7,16-16   S265,32,256,32z"></path><path id="curve0" fill-rule="evenodd" clip-rule="evenodd" fill="#F7BA00" d="M256,0c26.5,0,48,21.5,48,48c0,7-1.5,14-4.5,20   c-4,8.5,0,18,9,22C400,128,400,192,416,320c7,55,48,78.5,48,112v32H256V64c9,0,16-7,16-16s-7-16-16-16V0z"></path></g></svg>