<svg xmlns="http://www.w3.org/2000/svg" viewBox="0 0 40 40" fill="none"><path fill-rule="evenodd" clip-rule="evenodd" d="M20 1.25C30.3516 1.25 38.75 9.64844 38.75 20C38.75 30.3516 30.3516 38.75 20 38.75C9.64844 38.75 1.25 30.3516 1.25 20C1.25 9.64844 9.64844 1.25 20 1.25Z" fill="#B8D426"></path><path fill-rule="evenodd" clip-rule="evenodd" d="M33.2422 6.75781C36.6406 10.1172 38.75 14.8047 38.75 20C38.75 30.3516 30.3516 38.75 20 38.75C14.8047 38.75 10.1172 36.6406 6.75781 33.2422L33.2422 6.75781Z" fill="#A5C020"></path><path fill-rule="evenodd" clip-rule="evenodd" d="M24.4531 12.6172C24.9609 12.4609 25.6641 12.4219 25.9375 12.5C27.2656 12.9688 27.1875 14.3359 28.5547 14.5312C28.7109 14.5703 29.4141 14.1406 29.5703 14.1797C30.3906 14.3359 31.1719 15.0781 31.9141 14.7266C32.3438 14.4922 32.5391 13.6719 32.1484 13.3984C31.7969 13.125 31.2109 13.3203 30.8203 13.0469C30.1953 12.6172 29.6875 13.2031 29.2188 12.6172C28.9844 12.3828 28.5938 11.5625 28.2812 11.1328C27.9688 10.6641 26.9922 10.8594 27.1484 11.0547C27.6562 11.7188 28.3594 11.8359 28.4766 12.1875C28.5547 12.5781 27.5391 13.125 27.8125 12.3828C27.9688 12.0312 27.2266 11.7969 26.3672 11.3281C25.8984 11.0938 25.4688 10.5078 24.8047 10.8203C24.4531 10.9766 23.8281 11.7578 23.5938 12.1484C23.1641 12.7734 22.1484 12.6172 21.5234 12.3047C20.8594 11.9922 20.8594 10.3906 21.6797 9.72656C22.5 9.0625 23.1641 9.45312 23.9453 9.25781C24.2578 9.14062 24.4141 8.78906 24.9219 8.47656C25.4688 8.08594 24.5703 7.5 24.8828 6.875C25.1172 6.36719 25.9375 6.28906 26.4062 6.05469C26.7969 5.85938 27.2656 5.50781 27.7344 5.78125C28.3594 6.13281 29.0234 6.17188 29.6484 6.5625C30.5078 7.10938 31.1719 7.42188 32.0312 7.30469C29.1406 4.57031 25.3125 2.77344 21.0547 2.53906C21.6406 2.96875 22.6953 4.17969 22.4219 4.80469C22.1094 5.46875 21.7188 6.25 20.4688 6.67969C19.5703 7.03125 18.3594 7.03125 17.4609 7.46094C16.5234 7.85156 15.5859 7.8125 15.0391 7.92969C14.1797 8.16406 15.0781 5.15625 14.8438 4.80469C14.4531 4.29688 12.1875 4.72656 11.9922 5.23438C11.5234 6.44531 12.6172 7.46094 12.5781 7.69531C12.4609 8.16406 12.4609 9.96094 12.0312 10.4297C11.4062 11.1328 9.72656 11.7969 9.49219 11.8359C8.39844 11.9922 8.16406 13.0859 7.34375 13.75C6.99219 13.9844 5.27344 15.8203 5 16.3672C4.25781 17.8906 5 18.8672 5.3125 19.1797C5.89844 19.6875 6.17188 19.7656 6.79688 19.9609C7.07031 20.0391 9.53125 21.2891 10.1953 21.9922C10.8594 22.6953 11.2109 23.3984 11.875 23.8281C12.7344 24.3359 14.2188 24.8828 14.4141 25.2734C15.3516 27.0312 15.0391 29.4922 12.4219 31.25C11.7578 31.7188 10.3906 32.4609 10.7422 33.7109C10.8594 34.2188 10.8594 34.6484 11.0156 35.0391C13.6328 36.6016 16.7188 37.5 20 37.5C29.6484 37.5 37.5 29.6484 37.5 20C37.5 19.1797 37.4219 18.3594 37.3438 17.5391C37.0703 17.1875 36.7969 16.875 36.6016 16.9531C36.2891 17.0312 36.2891 17.9688 35.9375 18.5156C35.7031 18.9453 35.1172 18.9844 35 19.1406C34.375 19.9609 36.4844 20.6641 35.5859 21.8359C35.1953 22.3438 33.9844 23.4766 33.6719 24.9609C33.0078 28.125 33.4375 26.2109 32.4219 28.75C32.3047 29.1016 32.0312 30.5469 31.7969 30.8984C30.8203 32.3438 28.125 34.0234 27.4609 33.1641C27.0703 32.6953 26.8359 31.9531 26.7188 31.25C26.5625 30.5469 25.8594 29.6484 25.9375 29.0625C26.0156 28.2031 26.0938 27.9297 26.1328 26.9141C26.1328 26.875 25.5078 24.4531 25.4297 24.2578C24.9609 23.3203 24.2578 22.8906 23.2031 23.2422C22.4219 23.5156 21.7188 23.125 21.0938 22.8516C19.8438 22.3438 19.2188 20.6641 18.9844 19.3359C18.9844 19.2969 19.1797 17.1875 19.1797 17.0703C19.2188 16.5234 19.4531 15.9766 19.7656 15.5469C22.0703 12.2656 21.5234 13.6719 24.4531 12.6172ZM9.92188 34.2969C8.94531 33.1641 7.85156 31.7578 7.53906 30.9766C7.1875 30.0781 7.07031 28.4375 6.64062 27.9297C5.74219 26.9141 4.92188 26.0938 4.76562 25.0391C4.60938 24.0625 4.0625 22.6562 3.94531 21.9141C3.82812 20.8203 3.32031 19.6875 2.53906 18.8281C2.5 19.2188 2.5 19.6094 2.5 20C2.5 25.8984 5.42969 31.1328 9.92188 34.2969Z" fill="#00AEEE"></path><path fill-rule="evenodd" clip-rule="evenodd" d="M26.875 13.1641C27.3438 13.7109 27.6172 14.375 28.5547 14.5312C28.7109 14.5703 29.4141 14.1406 29.5703 14.1797C30.3906 14.3359 31.1719 15.0781 31.9141 14.7266C32.3438 14.4922 32.5391 13.6719 32.1484 13.3984C31.7969 13.125 31.2109 13.3203 30.8203 13.0469C30.1953 12.6172 29.6875 13.2031 29.2188 12.6172C29.0234 12.4219 28.75 11.9141 28.5156 11.4844L28.1641 11.8359C28.3203 11.9531 28.4375 12.0703 28.4766 12.1875C28.5547 12.5781 27.5391 13.125 27.8125 12.3828C27.8516 12.3438 27.8516 12.2656 27.8125 12.1875L26.875 13.1641ZM14.5312 25.4688C15.3125 27.2266 14.9219 29.5703 12.4219 31.25C11.7578 31.7188 10.3906 32.4609 10.7422 33.7109C10.8594 34.2188 10.8594 34.6484 11.0156 35.0391C13.6328 36.6016 16.7188 37.5 20 37.5C29.6484 37.5 37.5 29.6484 37.5 20C37.5 19.1797 37.4219 18.3594 37.3438 17.5391C37.0703 17.1875 36.7969 16.875 36.6016 16.9531C36.2891 17.0312 36.2891 17.9688 35.9375 18.5156C35.7031 18.9453 35.1172 18.9844 35 19.1406C34.375 19.9609 36.4844 20.6641 35.5859 21.8359C35.1953 22.3438 33.9844 23.4766 33.6719 24.9609C33.0078 28.125 33.4375 26.2109 32.4219 28.75C32.3047 29.1016 32.0312 30.5469 31.7969 30.8984C30.8203 32.3438 28.125 34.0234 27.4609 33.1641C27.0703 32.6953 26.8359 31.9531 26.7188 31.25C26.5625 30.5469 25.8594 29.6484 25.9375 29.0625C26.0156 28.2031 26.0938 27.9297 26.1328 26.9141C26.1328 26.875 25.5078 24.4531 25.4297 24.2578C24.9609 23.3203 24.2578 22.8906 23.2031 23.2422C22.4219 23.5156 21.7188 23.125 21.0938 22.8516C20.2344 22.5 19.6875 21.6406 19.3359 20.6641L14.5312 25.4688ZM7.61719 32.3828L8.08594 31.9141C8.55469 32.6562 9.25781 33.5547 9.92188 34.2969C9.10156 33.7109 8.32031 33.0859 7.61719 32.3828Z" fill="#0094D2"></path></svg>