<svg width="28" height="28" viewBox="0 0 28 28" fill="none" xmlns="http://www.w3.org/2000/svg">
<path d="M27.05 12.7968C26.4159 12.1628 25.6559 11.8459 24.7697 11.8459H23.693V7.5382C23.693 7.08962 23.5804 6.59578 23.3559 6.05756C23.1316 5.5191 22.8626 5.09287 22.5486 4.77873L19.9905 2.22094C19.6765 1.9071 19.2502 1.63775 18.712 1.41326C18.1734 1.189 17.6801 1.07684 17.2311 1.07684H5.92324C5.47449 1.07684 5.09298 1.23379 4.77884 1.54793C4.46488 1.86189 4.3077 2.24334 4.3077 2.69215V11.8459H3.23085C2.3446 11.8459 1.5846 12.1629 0.950665 12.7968C0.316849 13.4305 0 14.1906 0 15.0769V22.0771C0 22.2231 0.0533386 22.3487 0.159839 22.4558C0.266457 22.5622 0.392702 22.6154 0.538396 22.6154H4.3077V25.3077C4.3077 25.7566 4.46471 26.138 4.77884 26.452C5.09298 26.7659 5.47449 26.9232 5.92324 26.9232H22.0771C22.5256 26.9232 22.9077 26.7659 23.2215 26.452C23.5355 26.1378 23.6927 25.7566 23.6927 25.3077V22.6154H27.4619C27.6075 22.6154 27.7338 22.5622 27.8403 22.4558C27.9468 22.3488 28 22.2231 28 22.0771V15.0769C28.0002 14.1906 27.6835 13.4305 27.05 12.7968ZM21.5387 24.7693H6.46169V20.4617H21.5387V24.7693V24.7693ZM21.5387 13.9999H6.46169V3.23073H17.2311V5.92295C17.2311 6.3717 17.3884 6.75297 17.7021 7.06716C18.0161 7.3813 18.3975 7.53825 18.8465 7.53825H21.5387V13.9999V13.9999ZM25.5269 15.834C25.3139 16.047 25.0614 16.1539 24.7697 16.1539C24.478 16.1539 24.2255 16.047 24.0125 15.834C23.7995 15.6212 23.693 15.3685 23.693 15.0768C23.693 14.7851 23.7995 14.5327 24.0125 14.3196C24.2255 14.1065 24.4779 13.9998 24.7697 13.9998C25.0613 13.9998 25.3138 14.1065 25.5269 14.3196C25.7398 14.5326 25.8467 14.7851 25.8467 15.0768C25.8467 15.3685 25.74 15.6212 25.5269 15.834Z" fill="#918F8F"/>
</svg>
