<svg xmlns="http://www.w3.org/2000/svg" xmlns:xlink="http://www.w3.org/1999/xlink" version="1.1" viewBox="0 0 512 512"><title>table selection column icon</title><desc>table selection column icon from the IconExperience.com G-Collection. Copyright by INCORS GmbH (www.incors.com).</desc><g fill="none" fill-rule="evenodd" stroke="none" stroke-width="1" stroke-linecap="butt" stroke-linejoin="miter" stroke-miterlimit="10" stroke-dasharray="" stroke-dashoffset="0" font-family="none" font-weight="none" font-size="none" text-anchor="none" style="mix-blend-mode: normal"><path d="M464,32l0,448l-416,0l0,-448z" id="curve7" fill="#00aeee"></path><path d="M464,32l0,448l-416,0z" id="curve6" fill="#0094d2"></path><path d="M64,80l64,0l0,64l-64,0z M64,400l64,0l0,64l-64,0z M144,400l64,0l0,64l-64,0z M224,400l64,0l0,64l-64,0z M304,400l64,0l0,64l-64,0z M384,400l64,0l0,64l-64,0z M64,320l64,0l0,64l-64,0z M144,320l64,0l0,64l-64,0z M224,320l64,0l0,64l-64,0z M304,320l64,0l0,64l-64,0z M384,320l64,0l0,64l-64,0z M64,240l64,0l0,64l-64,0z M144,240l64,0l0,64l-64,0z M224,240l64,0l0,64l-64,0z M304,240l64,0l0,64l-64,0z M384,240l64,0l0,64l-64,0z M64,160l64,0l0,64l-64,0z M144,160l64,0l0,64l-64,0z M224,160l64,0l0,64l-64,0z M304,160l64,0l0,64l-64,0z M144,80l64,0l0,64l-64,0z M224,80l64,0l0,64l-64,0z M304,80l64,0l0,64l-64,0z M384,80l64,0l0,64l-64,0z M384,160l64,0l0,64l-64,0z" id="curve5" fill="#ffffff"></path><path d="M64,463l58.5,-63l5.5,0l0,64l-64,0z M144,376.5l52.5,-56.5l11.5,0l0,64l-64,0z M224,290.5l47,-50.5l17,0l0,64l-64,0z M285.5,224l2.5,-2.5l0,2.5z M304,204.5l41,-44.5l23,0l0,64l-64,0z M360,144l8,-8.5l0,8.5z M384,118l35.5,-38l28.5,0l0,64l-64,0z M144,400l64,0l0,64l-64,0z M224,400l64,0l0,64l-64,0z M304,400l64,0l0,64l-64,0z M384,400l64,0l0,64l-64,0z M224,320l64,0l0,64l-64,0z M304,320l64,0l0,64l-64,0z M384,320l64,0l0,64l-64,0z M304,240l64,0l0,64l-64,0z M384,240l64,0l0,64l-64,0z M384,160l64,0l0,64l-64,0z" id="curve4" fill="#d7d7d7"></path><path d="M128,64l96,0l0,416l-96,0z" id="curve3" fill="#ff8b0b"></path><path d="M224,290.5l0,189.5l-96,0l0,-86z" id="curve2" fill="#e66700"></path><path d="M144,400l64,0l0,64l-64,0z M144,320l64,0l0,64l-64,0z M144,240l64,0l0,64l-64,0z M144,160l64,0l0,64l-64,0z M144,80l64,0l0,64l-64,0z" id="curve1" fill="#fbd022"></path><path d="M144,400l64,0l0,64l-64,0z M144,376.5l52.5,-56.5l11.5,0l0,64l-64,0z" id="curve0" fill="#f7ba00"></path></g></svg>