<svg xmlns="http://www.w3.org/2000/svg" viewBox="0 0 40 40" fill="none"><path fill-rule="evenodd" clip-rule="evenodd" d="M11.25 0H28.75C30.1172 0 31.25 1.13281 31.25 2.5V37.5C31.25 38.8672 30.1172 40 28.75 40H11.25C9.88281 40 8.75 38.8672 8.75 37.5V2.5C8.75 1.13281 9.88281 0 11.25 0Z" fill="#0069A6"></path><path fill-rule="evenodd" clip-rule="evenodd" d="M20 0H28.75C30.1172 0 31.25 1.13281 31.25 2.5V37.5C31.25 38.8672 30.1172 40 28.75 40H20V0Z" fill="#005890"></path><path fill-rule="evenodd" clip-rule="evenodd" d="M11.25 1.25C10.5469 1.25 10 1.79688 10 2.5V37.5C10 38.2031 10.5469 38.75 11.25 38.75H28.75C29.4531 38.75 30 38.2031 30 37.5V2.5C30 1.79688 29.4531 1.25 28.75 1.25H11.25Z" fill="#0080BC"></path><path fill-rule="evenodd" clip-rule="evenodd" d="M20 38.75H28.75C29.4531 38.75 30 38.2031 30 37.5V2.5C30 1.79688 29.4531 1.25 28.75 1.25H20V38.75Z" fill="#0069A6"></path><path fill-rule="evenodd" clip-rule="evenodd" d="M11.25 5H28.75V31.25H11.25V5Z" fill="#36CDFF"></path><path fill-rule="evenodd" clip-rule="evenodd" d="M11.25 5H28.75V31.25H20V6.25H11.25V5Z" fill="#00AEEE"></path><path fill-rule="evenodd" clip-rule="evenodd" d="M18.125 2.5H21.875C22.2266 2.5 22.5 2.77344 22.5 3.125C22.5 3.47656 22.2266 3.75 21.875 3.75H18.125C17.7734 3.75 17.5 3.47656 17.5 3.125C17.5 2.77344 17.7734 2.5 18.125 2.5Z" fill="#D7D7D7"></path><path fill-rule="evenodd" clip-rule="evenodd" d="M20 2.5H21.875C22.2266 2.5 22.5 2.77344 22.5 3.125C22.5 3.47656 22.2266 3.75 21.875 3.75H20V2.5Z" fill="#AFAFAF"></path><path fill-rule="evenodd" clip-rule="evenodd" d="M18.75 32.5H21.25C21.9531 32.5 22.5 33.0469 22.5 33.75V36.25C22.5 36.9531 21.9531 37.5 21.25 37.5H18.75C18.0469 37.5 17.5 36.9531 17.5 36.25V33.75C17.5 33.0469 18.0469 32.5 18.75 32.5Z" fill="#D7D7D7"></path><path fill-rule="evenodd" clip-rule="evenodd" d="M20 32.5H21.25C21.9531 32.5 22.5 33.0469 22.5 33.75V36.25C22.5 36.9531 21.9531 37.5 21.25 37.5H20V32.5Z" fill="#AFAFAF"></path></svg>